<?xml version="1.0" standalone="no"?><!DOCTYPE svg PUBLIC "-//W3C//DTD SVG 1.1//EN" "http://www.w3.org/Graphics/SVG/1.1/DTD/svg11.dtd"><svg t="1547604602423" class="icon" style="" viewBox="0 0 1024 1024" version="1.1" xmlns="http://www.w3.org/2000/svg" p-id="1158" xmlns:xlink="http://www.w3.org/1999/xlink" width="200" height="200"><defs><style type="text/css"></style></defs><path d="M540.864 608.2432c-18.7392-6.1824-10.2912-33.8688-6.3872-44.2112 1.0368-2.2912 1.5872-3.6864 1.5872-3.9168 0-53.1584-43.0976-96.2432-96.2432-96.2432-40.768 0-75.5968 25.3568-89.6128 61.1584-18.8672 32.9216-47.4112 35.0464-53.5424 35.1104-0.4096 0-0.8064-0.0128-1.2032-0.0128-93.0304 0-168.4352 75.4048-168.4352 168.4352 0 71.9488 96.4608 168.4352 168.4352 168.4352 93.0176 0 168.4352-75.4304 168.4352-168.4352 0-0.8064-0.0256-1.6256-0.0256-2.432l0.0256 0.0128c0-79.04 65.728-68.8 76.992-69.76 13.2992 0 24.064-10.7776 24.064-24.064-0.0256-13.312-10.7904-24.0768-24.0896-24.0768z" fill="#ED7161" p-id="1159"></path><path d="M463.8464 726.1184l0.0384 0.0128c0-79.04 65.728-68.8 76.992-69.76 13.2992 0 24.064-10.7776 24.064-24.064 0-13.2992-10.7648-24.064-24.064-24.064-18.752-6.1824-10.2912-33.8816-6.3872-44.2112 1.0368-2.2784 1.5872-3.6864 1.5872-3.904 0-14.3616-3.1616-27.968-8.8064-40.2048-43.2896 38.9632-231.808 208.6272-231.808 208.6272s88.9216 94.656 145.9968 84.032c14.272-24.7296 22.4384-53.4272 22.4384-84.032-0.0256-0.8064-0.0384-1.6128-0.0512-2.432z" fill="#9D5F57" p-id="1160"></path><path d="M433.3568 619.9296l-29.9648-29.9776c-8.2688-8.2688-21.6832-8.2688-29.9648 0-8.2688 8.2944-8.2688 21.7088 0 29.9776l29.9648 29.9648c8.2816 8.2688 21.696 8.2688 29.9648 0 8.2816-8.2816 8.2816-21.696 0-29.9648zM337.1008 716.1728l-29.9648-29.9776c-8.2688-8.2688-21.6832-8.2688-29.9648 0-8.2816 8.2944-8.2816 21.7088 0 29.9776l29.9648 29.9648c8.2816 8.2944 21.696 8.2944 29.9648 0 8.2944-8.2816 8.2944-21.696 0-29.9648z" fill="#FFFFFF" p-id="1161"></path><path d="M307.4816 800.7168c-6.656 0-12.032 5.3888-12.032 12.032 0 6.656 5.376 12.0064 12.032 12.0064 6.6432 0 12.032-5.3504 12.032-12.0064 0-6.656-5.4016-12.032-12.032-12.032z m48.1152 0c-6.656 0-12.032 5.3888-12.032 12.032 0 6.656 5.376 12.0064 12.032 12.0064 6.6432 0 12.032-5.3504 12.032-12.0064 0-6.656-5.3888-12.032-12.032-12.032z" fill="#FFFFFF" p-id="1162"></path><path d="M872.9216 151.0784v-0.0256h-0.0256l-24.0384-24.0384h-24.0512l-72.192 72.1792 12.0192 12.0192-348.8768 348.8896 48.1152 48.1152 348.8896-348.8768 12.0448 12.0448 72.1792-72.192v-24.0512z" fill="#E8AD72" p-id="1163"></path><path d="M848.8576 127.0144h-24.0512l-72.192 72.1792v24.064l48.128 48.128h24.064l72.1792-72.192v-24.0512z" fill="#666666" p-id="1164"></path></svg>